<svg xmlns="http://www.w3.org/2000/svg" viewBox="0 0 35.04 35.51"><defs><style>.cls-1{fill:none;stroke:#000;stroke-miterlimit:1;stroke-width:1.68px;}</style></defs><title>Share</title><g id="Layer_2" data-name="Layer 2"><g id="Layer_1-2" data-name="Layer 1"><line class="cls-1" x1="8.51" y1="19.2" x2="26.55" y2="29.12"/><path class="cls-1" d="M31.79,27a4,4,0,1,0,2.08,5.22A4,4,0,0,0,31.79,27Z"/><line class="cls-1" x1="8.47" y1="16.19" x2="26.55" y2="6.39"/><path class="cls-1" d="M31.79,8.47a4,4,0,1,1,2.08-5.22A4,4,0,0,1,31.79,8.47Z"/><path class="cls-1" d="M6.38,21.4a3.93,3.93,0,0,1-4-.52,3.83,3.83,0,0,1-1.2-1.56A4,4,0,1,1,6.38,21.4Z"/></g></g></svg>