<svg xmlns="http://www.w3.org/2000/svg" viewBox="0 0 46.7 40.69"><defs><style>.cls-1,.cls-2{fill:none;}.cls-1{stroke:#000;stroke-miterlimit:1;stroke-width:1.68px;}.cls-2{stroke:#231f20;stroke-linecap:square;stroke-miterlimit:2;stroke-width:2.01px;}</style></defs><title>Shoppin_Cart</title><g id="Layer_2" data-name="Layer 2"><g id="Layer_1-2" data-name="Layer 1"><path class="cls-1" d="M7.69,37.55A2.26,2.26,0,1,1,10,39.85,2.28,2.28,0,0,1,7.69,37.55Z"/><path class="cls-1" d="M31.15,37.55a2.26,2.26,0,1,1,2.26,2.3A2.28,2.28,0,0,1,31.15,37.55Z"/><polyline class="cls-2" points="12.33 23.72 9.95 30.98 35.26 30.98"/><line class="cls-2" x1="39.32" y1="13.77" x2="39.32" y2="1"/><line class="cls-2" x1="32.93" y1="7.38" x2="45.7" y2="7.38"/><polyline class="cls-2" points="36.73 19.38 33.79 23.72 12.44 23.72 4.68 5.65 1 5.65"/><line class="cls-2" x1="7.47" y1="9.85" x2="27.48" y2="9.85"/></g></g></svg>